<svg width="40" height="40" viewBox="0 0 40 40" fill="none" xmlns="http://www.w3.org/2000/svg">
<path d="M32.3526 13.1336C32.3526 21.886 24.7192 31.5092 21.4538 35.2253C20.683 36.1026 19.3176 36.1026 18.5467 35.2253C15.2814 31.5092 7.64795 21.886 7.64795 13.1336C7.64795 6.31156 13.1783 0.78125 20.0003 0.78125C26.8223 0.78125 32.3526 6.31156 32.3526 13.1336Z" fill="#E8662A"/>
<path d="M17.3584 12.7861C17.3584 8.15477 19.2957 3.97602 22.404 1.01578C21.6265 0.862422 20.8229 0.78125 20.0003 0.78125C13.1783 0.78125 7.64795 6.31156 7.64795 13.1336C7.64795 21.886 15.2814 31.5092 18.5468 35.2253C19.3176 36.1026 20.683 36.1026 21.4539 35.2253C22.8577 33.6277 25.0688 30.9377 27.1337 27.6949C21.3812 25.1925 17.3584 19.4595 17.3584 12.7861Z" fill="#E8662A"/>
<path d="M20.0005 20.0851C23.7406 20.0851 26.7726 17.0531 26.7726 13.313C26.7726 9.57296 23.7406 6.54102 20.0005 6.54102C16.2605 6.54102 13.2285 9.57296 13.2285 13.313C13.2285 17.0531 16.2605 20.0851 20.0005 20.0851Z" fill="#F8E1D2"/>
</svg>
