<svg width="40" height="48" viewBox="0 0 40 48" fill="none" xmlns="http://www.w3.org/2000/svg">
<path d="M27.7669 5.05795C27.7783 5.05795 27.7888 5.05757 27.8002 5.05719C28.2273 5.03942 28.5592 4.67845 28.541 4.25132L28.3936 0.740941C28.3762 0.313437 28.0172 -0.00596335 27.5878 8.44652e-05C27.1606 0.0178499 26.8288 0.378828 26.8469 0.805955L26.9943 4.31633C27.0117 4.7325 27.3542 5.05795 27.7669 5.05795Z" fill="#E8662A"/>
<path d="M33.4841 7.28992C33.6821 7.28992 33.8802 7.21433 34.0314 7.06313L36.514 4.57975C36.8164 4.27736 36.8164 3.78748 36.514 3.48509C36.2116 3.1827 35.7218 3.1827 35.4194 3.48509L32.9368 5.96848C32.6344 6.27087 32.6344 6.76074 32.9368 7.06313C33.0879 7.21433 33.286 7.28992 33.4841 7.28992Z" fill="#E8662A"/>
<path d="M34.9421 12.2009C34.924 12.628 35.2558 12.989 35.683 13.0067L39.193 13.1542C39.2043 13.1545 39.2149 13.1549 39.2262 13.1549C39.6382 13.1549 39.9815 12.8295 39.9988 12.4133C40.017 11.9862 39.6851 11.6252 39.258 11.6074L35.748 11.46C35.3277 11.4555 34.9603 11.7734 34.9421 12.2009Z" fill="#E8662A"/>
<path d="M33.2431 27.4861L12.5233 6.76299L12.8988 4.45055L13.2203 2.4707L37.5371 26.7909L33.2431 27.4861ZM30.4997 9.50984C32.8311 11.8424 32.9989 15.5332 31.0062 18.0691L26.4706 13.5331L21.9331 8.99485C24.4694 7.00234 28.1615 7.17245 30.4997 9.50984ZM12.2173 8.64691L31.3586 27.7913L21.6026 29.371L10.6334 18.3999L12.2173 8.64691ZM4.66267 39.2065C3.59675 40.2711 1.86481 40.2726 0.798878 39.2065C-0.266293 38.1408 -0.266293 36.4075 0.798878 35.3422L2.73928 33.4015L6.60308 37.2658L4.66267 39.2065ZM27.9823 47.1994C26.9156 48.2667 25.1776 48.2674 24.1094 47.1994L14.7686 37.8569L16.7046 35.9204L18.6407 33.9839L21.9465 37.2901L20.0098 39.2266C19.7074 39.5286 19.7074 40.0189 20.0098 40.3214C20.1609 40.4726 20.359 40.5482 20.5571 40.5482C20.7551 40.5482 20.9532 40.4726 21.1044 40.3214L23.0411 38.3849L25.518 40.8621L23.5817 42.7987C23.2794 43.1011 23.2794 43.591 23.5817 43.8935C23.7329 44.0447 23.931 44.1203 24.1291 44.1203C24.3271 44.1203 24.5252 44.0447 24.6764 43.8935L26.6126 41.957L27.9823 43.3268C29.0497 44.3948 29.0497 46.1319 27.9823 47.1994ZM12.2784 38.1575C11.5632 38.8727 10.399 38.8719 9.68387 38.1575L8.246 36.7194C8.24567 36.7191 8.24558 36.7186 8.24558 36.7186L3.2868 31.7591C3.28647 31.7588 3.28599 31.7587 3.28566 31.7583L1.84742 30.3199C1.13226 29.6046 1.13226 28.4406 1.84742 27.7254L9.80785 19.7642L15.023 24.9802L20.2381 30.1963L12.2784 38.1575Z" fill="#E8662A"/>
</svg>
