<svg width="40" height="48" viewBox="0 0 40 48" fill="none" xmlns="http://www.w3.org/2000/svg">
<path d="M33.4792 41.1831C33.4466 41.2133 33.4098 41.2392 33.377 41.2692C32.9747 41.6377 32.5579 41.9919 32.123 42.3265C32.0493 42.3831 31.9713 42.4342 31.8967 42.4899C31.5272 42.7657 31.147 43.0284 30.7565 43.2787C30.6896 43.3217 30.6285 43.3719 30.561 43.414L32.2138 46.9567C32.6056 47.8262 33.6919 48.2307 34.5941 47.8402C35.5005 47.4134 35.8855 46.3749 35.4699 45.4721L33.4792 41.1831Z" fill="#E8662A"/>
<path d="M19.9954 25.0957C19.0054 25.0957 18.2002 25.8926 18.2002 26.8725C18.2002 27.3818 18.4202 27.8604 18.8033 28.1855C19.1455 28.4948 19.5516 28.6494 19.9954 28.6494C20.9854 28.6494 21.7906 27.8525 21.7906 26.8725C21.7906 25.8926 20.9854 25.0957 19.9954 25.0957Z" fill="#E8662A"/>
<path d="M8.09743 42.5008C8.0282 42.4492 7.95639 42.4027 7.88778 42.3501C7.45498 42.018 7.03588 41.6623 6.62733 41.2901C6.59176 41.2577 6.5529 41.2305 6.51752 41.1978L4.53211 45.4747C4.32662 45.9117 4.30562 46.3945 4.47138 46.8379C4.63715 47.2821 4.97213 47.639 5.41443 47.8428C5.64781 47.9452 5.90104 48 6.1539 48C6.86395 48 7.49036 47.6008 7.78866 46.9585L9.42916 43.4184C9.36428 43.3783 9.30417 43.3289 9.23971 43.2879C8.85126 43.0407 8.47026 42.7789 8.09743 42.5008Z" fill="#E8662A"/>
<path d="M19.9947 8.84521C9.95155 8.84521 1.78076 16.9321 1.78076 26.8726C1.78076 31.5941 3.60613 36.0502 6.91997 39.4198C8.09983 40.6254 9.41184 41.6405 10.8205 42.4389C13.5943 44.0506 16.7641 44.9004 19.9947 44.9004C23.2253 44.9004 26.3947 44.0506 29.1608 42.4431C29.4669 42.267 29.7634 42.0783 30.0569 41.8859C30.111 41.8505 30.1683 41.8192 30.222 41.7833C30.883 41.3399 31.5083 40.8531 32.0987 40.3304C32.432 40.0354 32.7558 39.7305 33.0648 39.4115C36.3832 36.0502 38.2082 31.599 38.2082 26.8726C38.2082 16.9321 30.0378 8.84521 19.9947 8.84521ZM30.3618 37.0714C30.352 37.0823 30.3486 37.0964 30.338 37.1069C30.3274 37.1174 30.313 37.1208 30.302 37.1306C27.6565 39.7337 24.0145 41.346 19.9981 41.346C15.9822 41.346 12.3407 39.7341 9.69525 37.1315C9.68375 37.1213 9.6689 37.1178 9.65782 37.1069C9.64679 37.096 9.64321 37.0813 9.633 37.0699C7.00328 34.4516 5.37458 30.8474 5.37458 26.8726C5.37472 22.8982 7.00314 19.2938 9.63242 16.6755C9.64288 16.6639 9.64651 16.6488 9.65782 16.6376C9.66919 16.6264 9.68442 16.6228 9.69626 16.6124C12.3416 14.0102 15.9827 12.3985 19.9981 12.3985C24.014 12.3985 27.6556 14.0105 30.301 16.6133C30.3124 16.6233 30.3271 16.6268 30.338 16.6376C30.3489 16.6484 30.3524 16.6628 30.3625 16.674C32.9927 19.2925 34.6216 22.8973 34.6216 26.8726C34.6216 30.8481 32.9924 34.453 30.3618 37.0714Z" fill="#E8662A"/>
<path d="M31.7261 26.0981H33.0183C32.8385 23.1179 31.6397 20.4117 29.7551 18.3104L28.8446 19.2119C28.6918 19.3631 28.4917 19.4387 28.2915 19.4387C28.0914 19.4387 27.8912 19.3631 27.7385 19.2119C27.4329 18.9098 27.4329 18.4195 27.7385 18.117L28.6489 17.2156C26.5259 15.3506 23.7919 14.1642 20.7812 13.9863V15.2646C20.7812 15.6922 20.4309 16.0389 19.9989 16.0389C19.5669 16.0389 19.2167 15.6922 19.2167 15.2646V13.9863C16.2059 14.1642 13.4717 15.3506 11.3488 17.2157L12.2594 18.117C12.5649 18.4195 12.5649 18.9094 12.2594 19.2119C12.1066 19.3631 11.9064 19.4387 11.7063 19.4387C11.5061 19.4387 11.306 19.3631 11.1532 19.2119L10.2426 18.3106C8.35811 20.4118 7.15935 23.118 6.97954 26.0981H8.27136C8.70335 26.0981 9.0536 26.4448 9.0536 26.8723C9.0536 27.2999 8.70335 27.6466 8.27136 27.6466H6.97949C7.15911 30.6267 8.35787 33.333 10.2425 35.4342L11.1532 34.5328C11.4588 34.2304 11.9538 34.2304 12.2594 34.5328C12.5649 34.8352 12.5649 35.3252 12.2594 35.6276L11.3487 36.529C13.4717 38.3941 16.2058 39.5805 19.2167 39.7583V38.48C19.2167 38.0525 19.5669 37.7058 19.9989 37.7058C20.4309 37.7058 20.7812 38.0525 20.7812 38.48V39.7583C23.792 39.5805 26.5261 38.3941 28.649 36.5291L27.7385 35.6276C27.4329 35.3252 27.4329 34.8349 27.7385 34.5328C28.044 34.2304 28.539 34.2304 28.8446 34.5328L29.7552 35.4344C31.6399 33.3331 32.8387 30.6268 33.0183 27.6466H31.7261C31.2941 27.6466 30.9438 27.2999 30.9438 26.8723C30.9438 26.4448 31.2941 26.0981 31.7261 26.0981ZM19.9955 30.1981C19.4268 30.1981 18.8805 30.0461 18.3944 29.7792L16.5078 31.6872C16.3547 31.8422 16.1515 31.9201 15.9487 31.9201C15.7512 31.9201 15.5537 31.8467 15.4017 31.6993C15.0927 31.4003 15.0873 30.9099 15.3895 30.6045L17.2314 28.7416C16.8551 28.2033 16.6358 27.5546 16.6358 26.8727C16.6358 25.3069 17.7385 23.9988 19.2132 23.6477V19.1427C19.2132 18.7151 19.5635 18.3684 19.9955 18.3684C20.4275 18.3684 20.7777 18.7151 20.7777 19.1427V23.6477C22.2524 23.9988 23.3552 25.3069 23.3552 26.8727C23.3552 28.7063 21.848 30.1981 19.9955 30.1981Z" fill="#E8662A"/>
<path d="M39.7988 4.50694C39.3878 2.95541 38.3867 1.64698 36.975 0.819798C34.0778 -0.853839 30.3374 0.116999 28.6369 2.98604L27.7863 4.42755C27.5682 4.79691 27.6938 5.27098 28.067 5.48647L31.818 7.65559L30.4088 10.2416C30.8547 10.5125 31.2849 10.799 31.7073 11.1087L33.1686 8.43665L37.2431 10.7928C37.3672 10.8646 37.5028 10.8987 37.6369 10.8987C37.905 10.8987 38.1659 10.7622 38.3118 10.5172L39.162 9.08855C39.1624 9.08742 39.1632 9.08629 39.164 9.08515C39.9852 7.68787 40.2109 6.06187 39.7988 4.50694Z" fill="#E8662A"/>
<path d="M2.36324 10.8989C2.49731 10.8989 2.6329 10.8649 2.75704 10.7931L6.83192 8.43652L8.28722 11.109C8.70966 10.7992 9.13989 10.5128 9.58577 10.2418L8.18257 7.65546L11.9327 5.48672C12.3059 5.27123 12.4316 4.79715 12.2135 4.42779L11.3621 2.98515C9.66202 0.116488 5.92115 -0.85435 3.02059 0.822689C1.61308 1.64722 0.611977 2.95566 0.200993 4.50718C-0.210754 6.06173 0.0145992 7.68774 0.835803 9.0854C0.836567 9.08653 0.83733 9.08766 0.838094 9.08918L1.68871 10.5178C1.83423 10.7628 2.09511 10.8989 2.36324 10.8989Z" fill="#E8662A"/>
<path d="M17.0405 3.22672H19.2152V7.31474C19.4734 7.30699 19.7315 7.29929 19.9975 7.29929C20.2634 7.29929 20.5215 7.30699 20.7797 7.31474V3.22672H22.9543C23.3924 3.22672 23.7366 2.8783 23.7366 2.45247C23.7366 2.02664 23.3924 1.67822 22.9543 1.67822H17.0405C16.6103 1.67822 16.2583 2.02664 16.2583 2.45247C16.2583 2.8783 16.6103 3.22672 17.0405 3.22672Z" fill="#E8662A"/>
</svg>
