<svg width="40" height="40" viewBox="0 0 40 40" fill="none" xmlns="http://www.w3.org/2000/svg">
<path d="M20.4956 12.1405V19.5301H28.5747C28.6598 19.4451 28.7448 19.3602 28.8299 19.1903C28.9149 19.1054 29 18.9355 29.17 18.8506C29.7653 18.0861 30.4457 17.3217 30.956 16.5572C30.7008 14.179 30.2756 11.8857 29.5953 9.84717C26.7888 11.2911 23.7273 12.0555 20.4956 12.1405Z" fill="#E8662A"/>
<path d="M10.8008 8.91263C13.4371 10.2716 16.4137 11.0361 19.4752 11.121V0.0791016C15.8183 0.418853 12.6717 3.81636 10.8008 8.91263Z" fill="#E8662A"/>
<path d="M7.90945 19.5296C7.99449 15.8773 8.5898 12.3948 9.61032 9.42202C8.16458 8.57264 6.80389 7.55339 5.52823 6.36426C2.12649 9.93164 0.170493 14.6032 0.0854492 19.5296H7.90945Z" fill="#E8662A"/>
<path d="M10.4605 9.93213C9.52499 12.7351 8.92969 16.0476 8.92969 19.5301H19.4751V12.1405C16.2434 12.0556 13.1819 11.2911 10.4605 9.93213Z" fill="#E8662A"/>
<path d="M10.4605 30.1473C13.2669 28.7033 16.3285 27.9389 19.4751 27.8539V20.4644H8.92969C8.92969 23.9468 9.52499 27.2594 10.4605 30.1473Z" fill="#E8662A"/>
<path d="M30.1055 8.40265C31.4662 7.63821 32.6568 6.7039 33.7623 5.59971C33.167 5.00514 32.4867 4.41058 31.8063 3.98589C31.7213 3.98589 31.7213 3.98589 31.6362 3.90095C30.6157 3.13651 29.5102 2.54195 28.4046 1.94738C28.3196 1.94738 28.3196 1.86244 28.3196 1.86244C27.1289 1.26788 25.8533 0.92813 24.5776 0.588379C26.8738 2.2022 28.7448 4.9202 30.1055 8.40265Z" fill="#E8662A"/>
<path d="M20.4956 20.5493V27.6841C20.6657 27.5142 20.8358 27.3443 21.0059 27.2594C21.176 27.0895 21.4311 26.9196 21.6012 26.7498C21.7713 26.5799 21.9413 26.495 22.1114 26.3251C22.3666 26.1552 22.5366 25.9004 22.7918 25.7305C22.9619 25.6456 23.0469 25.4757 23.217 25.3908C23.5572 25.051 23.8973 24.7113 24.2375 24.3715C24.9179 23.692 25.5982 23.0125 26.2786 22.2481C26.3636 22.1631 26.4487 22.0782 26.5337 21.9933C26.9589 21.5686 27.3841 21.0589 27.7243 20.6343H20.4956V20.5493Z" fill="#E8662A"/>
<path d="M34.5279 6.36426C33.2522 7.55339 31.8915 8.57264 30.4458 9.42202C31.0411 11.2057 31.5514 13.2442 31.8065 15.3677C32.3168 14.6032 32.9121 13.8388 33.3373 13.0743C33.5074 12.9045 33.5924 12.6497 33.6775 12.4798C33.7625 12.3099 33.9326 12.0551 34.0176 11.8852C34.2728 11.5455 34.4428 11.1208 34.6129 10.781C34.698 10.6111 34.783 10.5262 34.8681 10.3563C35.0382 10.0166 35.2082 9.76177 35.2933 9.42202C35.3783 9.33708 35.3783 9.25214 35.4634 9.08227C35.6335 8.74251 35.7185 8.40276 35.8886 8.06301C35.4634 7.46845 35.0381 6.87388 34.5279 6.36426Z" fill="#E8662A"/>
<path d="M10.8008 31.1664C11.141 32.1856 11.5662 33.12 12.0764 33.9693C12.2465 33.8844 12.4166 33.7145 12.6717 33.6296C12.8418 33.5446 12.9269 33.4597 13.097 33.3748C13.267 33.2898 13.5222 33.12 13.6923 32.9501C13.8623 32.8651 13.9474 32.7802 14.1175 32.6953C14.2876 32.5254 14.5427 32.4405 14.7128 32.2706C14.8829 32.1856 14.9679 32.1007 15.138 32.0158C15.3081 31.8459 15.5632 31.761 15.7333 31.5911C15.9034 31.5061 15.9884 31.3363 16.1585 31.2513C16.3286 31.0815 16.5837 30.9116 16.7538 30.8266C16.9239 30.7417 17.094 30.5718 17.179 30.4869C17.3491 30.317 17.6043 30.1471 17.7743 29.9773C17.9444 29.8074 18.1145 29.7224 18.2846 29.5526C18.4547 29.3827 18.7098 29.2128 18.8799 29.0429C18.965 29.0429 18.965 28.958 19.05 28.958C16.0735 29.1279 13.267 29.8074 10.8008 31.1664Z" fill="#E8662A"/>
<path d="M9.86496 31.6758C8.50427 32.4402 7.31366 33.3745 6.12305 34.4787C6.71835 34.9884 7.31366 35.5829 7.90896 36.0076C7.994 35.9227 8.16409 35.9227 8.24913 35.8377C8.41922 35.7528 8.58931 35.7528 8.67435 35.6679C8.84444 35.5829 8.92948 35.498 9.09957 35.498C9.26966 35.413 9.43974 35.3281 9.60983 35.2432C9.77992 35.1582 9.86496 35.0733 10.035 34.9884C10.2051 34.9034 10.3752 34.8185 10.5453 34.7335C10.7154 34.6486 10.8004 34.5637 10.9705 34.4787C10.9705 34.4787 11.0556 34.4787 11.0556 34.3938C10.7154 33.5444 10.2902 32.6101 9.86496 31.6758Z" fill="#E8662A"/>
<path d="M33.0822 20.5493C32.827 20.8891 32.6569 21.1439 32.4018 21.3987C32.3168 21.5686 32.1467 21.7384 32.0616 21.8234V21.9083C31.8915 25.136 31.2962 28.1088 30.4458 30.6569C31.8915 31.5063 33.2522 32.5255 34.5279 33.7147C37.8446 30.2322 39.8856 25.6456 39.9707 20.5493H33.0822Z" fill="#E8662A"/>
<path d="M20.4956 39.9151C24.0674 39.5753 27.214 36.1778 29.17 31.0816C27.8093 30.3171 26.2786 29.8075 24.7478 29.3828C24.6627 29.4678 24.6627 29.4678 24.5777 29.5527C24.1525 29.9774 23.7273 30.3171 23.302 30.7418C23.0469 30.9966 22.7918 31.1665 22.5366 31.4213C22.1965 31.7611 21.7713 32.1008 21.4311 32.3556C21.176 32.6104 20.8358 32.7803 20.5806 33.0351V39.9151H20.4956Z" fill="#E8662A"/>
<path d="M13.6066 37.8765C13.3515 38.0463 13.1814 38.1313 12.9263 38.2162C12.7562 38.3012 12.5861 38.3861 12.416 38.471C13.3515 38.8957 14.287 39.1505 15.3075 39.4053C14.7122 38.9807 14.1169 38.471 13.6066 37.8765Z" fill="#E8662A"/>
<path d="M20.4956 0.0791016V11.121C23.5572 11.0361 26.5337 10.2716 29.17 8.91263C27.214 3.81636 24.0674 0.418853 20.4956 0.0791016Z" fill="#E8662A"/>
<path d="M39.9706 19.5298C39.8856 17.0666 39.4604 14.7733 38.5249 12.48C38.4398 12.6499 38.3548 12.8197 38.2698 12.9896C38.0997 13.2444 38.0146 13.4992 37.8445 13.754C37.6744 14.0938 37.4193 14.4335 37.2492 14.7733C37.0791 15.0281 36.9091 15.2829 36.739 15.6227C36.4838 15.9624 36.3138 16.3022 36.0586 16.6419C35.8885 16.8967 35.7184 17.2365 35.4633 17.4913C35.2082 17.8311 34.9531 18.2557 34.6979 18.5955C34.5278 18.8503 34.2727 19.1051 34.1026 19.4449C34.1026 19.4449 34.1026 19.5298 34.0176 19.5298H39.9706Z" fill="#E8662A"/>
<path d="M19.475 39.9998V33.9692C19.475 33.9692 19.475 33.9692 19.39 33.9692C19.1348 34.2241 18.7947 34.3939 18.5395 34.6487C18.1994 34.9036 17.8592 35.1584 17.519 35.4132C17.2639 35.5831 16.9237 35.8379 16.6686 36.0077C16.3284 36.2626 15.9882 36.4324 15.648 36.6872C15.3929 36.8571 15.0527 37.027 14.7976 37.1969C14.7126 37.2818 14.6275 37.2818 14.5425 37.3667C15.9882 38.8956 17.6891 39.8299 19.475 39.9998Z" fill="#E8662A"/>
<path d="M29.5101 30.147C30.1904 28.0236 30.7007 25.6453 30.9558 23.0972C30.8708 23.1821 30.8708 23.267 30.7857 23.267C30.3605 23.6917 30.0203 24.2014 29.5951 24.626C29.425 24.7959 29.2549 25.0507 29.0848 25.2206C28.4895 25.9001 27.8942 26.4947 27.2139 27.1742C26.7036 27.6838 26.1934 28.1934 25.6831 28.6181C26.9588 29.0428 28.2344 29.5524 29.5101 30.147Z" fill="#E8662A"/>
<path d="M1.956 28.5335C2.46626 29.6377 3.14661 30.7418 3.912 31.7611C3.912 31.846 3.99704 31.846 3.99704 31.931C4.50731 32.6105 5.01757 33.205 5.52783 33.7147C6.80348 32.5255 8.16418 31.5063 9.60992 30.6569C8.58939 27.5991 7.99409 24.1167 7.99409 20.5493H0C0.0850435 23.2673 0.680348 25.9853 1.78591 28.4485C1.87096 28.4485 1.87096 28.4485 1.956 28.5335Z" fill="#E8662A"/>
<path d="M9.86537 8.40265C11.2261 4.9202 13.1821 2.2022 15.3932 0.588379C11.9915 1.35282 8.7598 3.13651 6.2085 5.59971C7.31406 6.7039 8.58971 7.63821 9.86537 8.40265Z" fill="#E8662A"/>
<path d="M30.1054 31.6758C28.8297 35.1582 26.8737 37.8762 24.6626 39.4051C28.1494 38.5557 31.296 36.857 33.7623 34.3938C32.6567 33.3745 31.381 32.4402 30.1054 31.6758Z" fill="#E8662A"/>
<path d="M11.0555 38.1313C14.5423 36.4325 18.5393 33.6296 22.5363 30.1471C23.812 28.958 25.1727 27.7689 26.4483 26.4948C28.5744 24.3714 30.6155 22.078 32.4014 19.8697C32.4014 19.7847 32.4864 19.6998 32.5715 19.6148C34.9527 16.642 36.8236 13.6692 38.0993 11.0361C39.7151 7.8085 41.0758 3.47668 38.7796 1.18336C37.0788 -0.515395 34.0172 -0.34552 29.8501 1.43817C30.6155 1.86286 31.3809 2.28755 32.0612 2.79718C34.6125 1.86286 36.3984 1.77792 37.2489 2.6273C38.3544 3.90137 37.7591 6.36456 36.9937 8.14825C36.8237 8.488 36.6536 8.91269 36.4835 9.33738C36.3984 9.50726 36.3984 9.59219 36.3134 9.76207C36.1433 10.1018 35.9732 10.3566 35.8031 10.6964C35.7181 10.9512 35.548 11.1211 35.463 11.3759C35.2929 11.6307 35.2078 11.8855 35.0377 12.1403C34.8676 12.3951 34.7826 12.65 34.6125 12.9048C34.5275 13.0746 34.4424 13.1596 34.3574 13.3295C33.592 14.5186 32.7416 15.7926 31.8061 17.0667C30.9556 18.2558 30.0202 19.445 28.9996 20.6341C28.9146 20.804 28.7445 20.8889 28.6595 21.0588C28.2343 21.5684 27.724 22.078 27.2137 22.6726C27.1287 22.7575 26.9586 22.9274 26.8736 23.0124C26.2783 23.6919 25.5979 24.3714 24.9176 25.0509C19.2196 30.6568 12.9264 35.2434 8.16399 37.0271C5.52764 38.0463 3.57164 38.1313 2.7212 37.2819C1.95581 36.5175 1.95581 34.5639 2.89129 32.1007C2.38103 31.4212 1.95581 30.6568 1.5306 29.8923C1.5306 29.8923 1.5306 29.8923 1.5306 29.8074C-0.850623 34.9886 0.084856 37.5367 1.27547 38.7258C2.97634 40.5945 6.46312 40.3397 11.0555 38.1313Z" fill="#E8662A"/>
</svg>
